# xmcd
#
# Track frame offsets:
#        150
#        9438
#        32576
#        57279
#        71994
#        93236
#        118043
#        137062
#        150053
#        165718
#        179640
#        205625
#
# Disc length: 3037 seconds
#
# Revision: 1
# Processed by: cddbd v1.5PL3 Copyright (c) Steve Scherf et al.
# Submitted via: ExactAudioCopy v0.95a4
#
DISCID=980bdb0c
DTITLE=Various Artist - Happiness
DYEAR=1998
DGENRE=
TTITLE0=INTRO
TTITLE1=HAL-PUZZLE
TTITLE2=WATCHIN'
TTITLE3=KITCHEN
TTITLE4=GIRL100
TTITLE5=HAI
TTITLE6=ALL LIFE
TTITLE7=EVERYONE'S GONE TO THE MOON
TTITLE8=NATURAL KISS
TTITLE9=BAJO SECO
TTITLE10=FILE NOT FOUND
TTITLE11=Koi ha Bossa Nova no Rhythm de
EXTD=
EXTT0=
EXTT1=
EXTT2=
EXTT3=
EXTT4=
EXTT5=
EXTT6=
EXTT7=
EXTT8=
EXTT9=
EXTT10=
EXTT11=
PLAYORDER=
